<?xml version="1.0" encoding="UTF-8"?>
<svg version="1.1" xmlns="http://www.w3.org/2000/svg" width="64" height="64">
<path d="M0 0 C9.24 0 18.48 0 28 0 C29 3 29 3 27.453125 6.1796875 C26.72904793 7.41753984 25.99418614 8.64913173 25.25 9.875 C24.8890625 10.48730469 24.528125 11.09960938 24.15625 11.73046875 C23.11438335 13.49333733 22.05938914 15.24761931 21 17 C20.41734375 17.97195312 19.8346875 18.94390625 19.234375 19.9453125 C18.82703125 20.62335937 18.4196875 21.30140625 18 22 C20.64 22.33 23.28 22.66 26 23 C26 24.32 26 25.64 26 27 C23.91373752 28.93595538 21.90856251 30.57966514 19.625 32.25 C18.34341294 33.21960673 17.06216552 34.18966255 15.78125 35.16015625 C15.14316406 35.63727051 14.50507812 36.11438477 13.84765625 36.60595703 C11.22977812 38.58112671 8.67826863 40.62947744 6.125 42.6875 C5.32320312 43.33074219 4.52140625 43.97398438 3.6953125 44.63671875 C3.13585938 45.08660156 2.57640625 45.53648438 2 46 C2.33 46.66 2.66 47.32 3 48 C5.12576782 48.46651207 5.12576782 48.46651207 7.5625 48.625 C8.38878906 48.69976562 9.21507812 48.77453125 10.06640625 48.8515625 C10.70449219 48.90054688 11.34257813 48.94953125 12 49 C12.33 48.34 12.66 47.68 13 47 C13 47.99 13 48.98 13 50 C13.66 50 14.32 50 15 50 C15.33 49.01 15.66 48.02 16 47 C16.99 47 17.98 47 19 47 C19 47.66 19 48.32 19 49 C19.61875 48.814375 20.2375 48.62875 20.875 48.4375 C25.3323206 47.81347512 29.55486111 48.43896305 34 49 C34.495 48.01 34.495 48.01 35 47 C35 47.66 35 48.32 35 49 C36.65 49 38.3 49 40 49 C40 50.32 40 51.64 40 53 C34.72 53 29.44 53 24 53 C23.67 53.66 23.34 54.32 23 55 C20.16017118 55.94660961 18.38144671 56.12867774 15.4375 56.1328125 C14.55835937 56.13410156 13.67921875 56.13539062 12.7734375 56.13671875 C11.85820313 56.13285156 10.94296875 56.12898438 10 56.125 C8.62714844 56.13080078 8.62714844 56.13080078 7.2265625 56.13671875 C5.90785156 56.13478516 5.90785156 56.13478516 4.5625 56.1328125 C3.75941406 56.13168457 2.95632812 56.13055664 2.12890625 56.12939453 C-0 56 -0 56 -3 55 C-3 53.68 -3 52.36 -3 51 C-2.01 51 -1.02 51 0 51 C-0.33 50.34 -0.66 49.68 -1 49 C-2.65 49 -4.3 49 -6 49 C-5.50387003 40.89654389 -2.679915 33.59474067 0 26 C-1.98 26 -3.96 26 -6 26 C-6.40255375 19.81912265 -4.96580446 14.8876114 -3 9.0625 C-2.01 6.071875 -1.02 3.08125 0 0 Z " fill="#FFCD29" transform="translate(22,8)"/>
<path d="M0 0 C0.763125 0.226875 1.52625 0.45375 2.3125 0.6875 C1.37635433 2.41740025 0.43852042 4.14638696 -0.5 5.875 C-1.02207031 6.83792969 -1.54414062 7.80085938 -2.08203125 8.79296875 C-3.56213866 11.46148357 -5.10087509 14.08124227 -6.6875 16.6875 C-4.0475 17.0175 -1.4075 17.3475 1.3125 17.6875 C1.3125 19.0075 1.3125 20.3275 1.3125 21.6875 C-0.77376248 23.62345538 -2.77893749 25.26716514 -5.0625 26.9375 C-6.34408706 27.90710673 -7.62533448 28.87716255 -8.90625 29.84765625 C-9.54433594 30.32477051 -10.18242188 30.80188477 -10.83984375 31.29345703 C-13.45772188 33.26862671 -16.00923137 35.31697744 -18.5625 37.375 C-19.36429688 38.01824219 -20.16609375 38.66148438 -20.9921875 39.32421875 C-21.55164063 39.77410156 -22.11109375 40.22398438 -22.6875 40.6875 C-22.3575 41.3475 -22.0275 42.0075 -21.6875 42.6875 C-19.56173218 43.15401207 -19.56173218 43.15401207 -17.125 43.3125 C-16.29871094 43.38726562 -15.47242188 43.46203125 -14.62109375 43.5390625 C-13.98300781 43.58804688 -13.34492187 43.63703125 -12.6875 43.6875 C-12.3575 43.0275 -12.0275 42.3675 -11.6875 41.6875 C-11.6875 42.6775 -11.6875 43.6675 -11.6875 44.6875 C-11.0275 44.6875 -10.3675 44.6875 -9.6875 44.6875 C-9.3575 43.6975 -9.0275 42.7075 -8.6875 41.6875 C-7.6975 41.6875 -6.7075 41.6875 -5.6875 41.6875 C-5.6875 42.3475 -5.6875 43.0075 -5.6875 43.6875 C-5.06875 43.501875 -4.45 43.31625 -3.8125 43.125 C0.6448206 42.50097512 4.86736111 43.12646305 9.3125 43.6875 C9.8075 42.6975 9.8075 42.6975 10.3125 41.6875 C10.3125 42.3475 10.3125 43.0075 10.3125 43.6875 C11.9625 43.6875 13.6125 43.6875 15.3125 43.6875 C15.3125 45.0075 15.3125 46.3275 15.3125 47.6875 C10.0325 47.6875 4.7525 47.6875 -0.6875 47.6875 C-1.0175 48.3475 -1.3475 49.0075 -1.6875 49.6875 C-4.52732882 50.63410961 -6.30605329 50.81617774 -9.25 50.8203125 C-10.12914063 50.82160156 -11.00828125 50.82289062 -11.9140625 50.82421875 C-12.82929687 50.82035156 -13.74453125 50.81648438 -14.6875 50.8125 C-16.06035156 50.81830078 -16.06035156 50.81830078 -17.4609375 50.82421875 C-18.77964844 50.82228516 -18.77964844 50.82228516 -20.125 50.8203125 C-20.92808594 50.81918457 -21.73117188 50.81805664 -22.55859375 50.81689453 C-24.6875 50.6875 -24.6875 50.6875 -27.6875 49.6875 C-27.6875 48.3675 -27.6875 47.0475 -27.6875 45.6875 C-26.6975 45.6875 -25.7075 45.6875 -24.6875 45.6875 C-24.96980469 44.76130859 -24.96980469 44.76130859 -25.2578125 43.81640625 C-25.89671199 40.86037129 -26.13938291 38.69168455 -25.6875 35.6875 C-22.81815441 32.08387306 -19.33071921 29.47478217 -15.6875 26.6875 C-14.62406501 25.68936365 -13.57597423 24.67382798 -12.5625 23.625 C-11.94375 22.985625 -11.325 22.34625 -10.6875 21.6875 C-11.3475 21.6875 -12.0075 21.6875 -12.6875 21.6875 C-13.79913195 17.77904936 -13.88316242 16.10797657 -12.140625 12.36328125 C-11.42357521 11.23102799 -10.68861283 10.10994926 -9.9375 9 C-9.5765625 8.43216797 -9.215625 7.86433594 -8.84375 7.27929688 C-3.84387321 -0.446962 -3.84387321 -0.446962 0 0 Z " fill="#FFC022" transform="translate(46.6875,13.3125)"/>
<path d="M0 0 C5.94 0.99 5.94 0.99 12 2 C12.33 1.34 12.66 0.68 13 0 C13 0.99 13 1.98 13 3 C13.66 3 14.32 3 15 3 C15.33 2.01 15.66 1.02 16 0 C16.99 0 17.98 0 19 0 C19 0.66 19 1.32 19 2 C19.61875 1.814375 20.2375 1.62875 20.875 1.4375 C25.3323206 0.81347512 29.55486111 1.43896305 34 2 C34.33 1.34 34.66 0.68 35 0 C35 0.66 35 1.32 35 2 C36.65 2 38.3 2 40 2 C40 3.32 40 4.64 40 6 C34.72 6 29.44 6 24 6 C23.67 6.66 23.34 7.32 23 8 C20.16017118 8.94660961 18.38144671 9.12867774 15.4375 9.1328125 C14.55835937 9.13410156 13.67921875 9.13539062 12.7734375 9.13671875 C11.85820313 9.13285156 10.94296875 9.12898438 10 9.125 C8.62714844 9.13080078 8.62714844 9.13080078 7.2265625 9.13671875 C5.90785156 9.13478516 5.90785156 9.13478516 4.5625 9.1328125 C3.75941406 9.13168457 2.95632812 9.13055664 2.12890625 9.12939453 C0 9 0 9 -3 8 C-3 6.68 -3 5.36 -3 4 C-2.01 4 -1.02 4 0 4 C0 2.68 0 1.36 0 0 Z " fill="#FF6C00" transform="translate(22,55)"/>
<path d="M0 0 C6.6 0 13.2 0 20 0 C19.67 1.32 19.34 2.64 19 4 C11.33277731 5.98290242 11.33277731 5.98290242 7.8828125 6.16015625 C6.93148438 6.43730469 5.98015625 6.71445313 5 7 C3.39988289 9.94072988 3.39988289 9.94072988 2.5 13.5 C1.46875 17.09375 1.46875 17.09375 0 20 C-3.15625 20.90625 -3.15625 20.90625 -6 21 C-5.56730125 19.1863478 -5.12853661 17.37414268 -4.6875 15.5625 C-4.44386719 14.55316406 -4.20023438 13.54382813 -3.94921875 12.50390625 C-2.80632033 8.285059 -1.38220436 4.14661308 0 0 Z " fill="#FFDC69" transform="translate(22,8)"/>
<path d="M0 0 C0.99 0 1.98 0 3 0 C3 0.66 3 1.32 3 2 C3.99 2.33 4.98 2.66 6 3 C5.65690928 4.32120022 5.27417573 5.63214948 4.875 6.9375 C4.66617187 7.66839844 4.45734375 8.39929688 4.2421875 9.15234375 C3.83226562 9.76207031 3.42234375 10.37179688 3 11 C1.02 11.33 -0.96 11.66 -3 12 C-2.01 8.04 -1.02 4.08 0 0 Z " fill="#FFDC66" transform="translate(19,17)"/>
<path d="M0 0 C1.670625 0.061875 1.670625 0.061875 3.375 0.125 C3.375 1.445 3.375 2.765 3.375 4.125 C2.42625 4.2075 1.4775 4.29 0.5 4.375 C-2.72961791 4.77574923 -2.72961791 4.77574923 -4 7.1875 C-4.20625 7.826875 -4.4125 8.46625 -4.625 9.125 C-5.285 9.125 -5.945 9.125 -6.625 9.125 C-5.63269231 0.19423077 -5.63269231 0.19423077 0 0 Z " fill="#FFF7DF" transform="translate(29.625,9.875)"/>
</svg>
